/* XPM */
static char *_e799a4d216f43d4edde8509c83101397nCreh5gH1V0NCGz[] = {
/* columns rows colors chars-per-pixel */
"64 64 29 1 ",
"  c black",
". c #0D0C04",
"X c #182329",
"o c #1F2E36",
"O c #202E36",
"+ c #BA9F16",
"@ c #9C8A2B",
"# c #CAB231",
"$ c #CEB637",
"% c #D0B83A",
"& c #D1B93E",
"* c #D2BB46",
"= c #D2BC4A",
"- c #D3BF56",
"; c #D4BF56",
": c #D4C15D",
"> c #D6C469",
", c #D8C775",
"< c #D8C879",
"1 c #7EB9D9",
"2 c #81BAD9",
"3 c #88BCD8",
"4 c #8BBDD8",
"5 c #91BFD7",
"6 c #95C0D7",
"7 c #9BC1D6",
"8 c #A5C4D5",
"9 c #A8C5D5",
"0 c #B2C8D4",
/* pixels */
"1111111111111111111111111111111111111111111111111111111111111111",
"1111111233211111111111111111111111111111111111111111111111111111",
"1111111377311111111111111111111111111111111111111111111111111111",
"1112333998311111111112333333211111111111111111111111111111111111",
"1113799998311111111113789997311111111111111111111111111111111111",
"1239999997311112333339999999999993211111111111111111111111111111",
"1399999333211113789999999999999999911111111111111111111111111111",
"1399973111111239999999993399999999911111111111111111111111111111",
"19996321111199999999933322333333332111111111111111    1111111111",
"19993111123999999991111111111111111111111111111         11111111",
"1993211119999999332111111111111111111111111        %%     111111",
"111111123999999111111111111111111111111          %%%%%     11111",
"1111111399999921111111111111111111111        %%%%%%%%%%%    1111",
"11111239999931111111111111111111111      %%%%%%%%%%%%%%%%   1111",
"111113999963211111111111111111111      %%%%%%%%%%%%%%%%%%%   111",
"1111139999311111111111111111111     %%%%%%%%*======*&%%%%%%  111",
"1111139993211111111111111111o     %%%%%%%%%<<<<<<<<<*%%%%%%  111",
"11111399311111111111111111X.    %%%%%%%%%%%<<<<<<<<<<*&%%%%   11",
"111113993111111111111111       %%%%%%%%%%%%<<<<<<<<<<<*%%%++  11",
"1111139931111111111111       %%%%%%%%%%%%%%<<<<<<<<<<<;*&%+++ 11",
"111113993111111111111     %%%%%%%%%%%%%%%%%=<<<<<<<<<<<:*%+++ 11",
"111113993111111111X   %%%%%%%%%%%%%%%%%%%%%*:<<<<<<<<<<>=%+++ 11",
"11111299211111111     %%%%%%%%%%%%%%%%%%%%%&*==<<<<<<<<>=%++  11",
"1111119911111111   %%%%%%%%%%%%%%%%%%%%%%%%%%%%*:<<<<<<:*%++  11",
"111111111111111    %%%%%%%%%%%%%%%%%%%%%%%%%%%%&*<<<<<-*++++  11",
"11111111111111   %%%%%%&*<<<<<<<<==*&%%%%%%%%%%%%*:>>:*%++++  11",
"1111111111111    %%%%%%*<<<<<<<<<<<<*%%%%%%%%%%%%&*==*&%+++  111",
"111111111111   %%%%%%%%=<<<<<<<<<<<<<<=*&%%%%%%%%%%%%%%++++  111",
"11111111111    %%%%%%%%=<<<<<<<<<<<<<<<:*%%%%%%%%%%%%%%++@  1111",
"11111111111  %%%%%%%%%%=<<<<<<<<<<<<<<<<<*&%%%%%%%%%%%%++   1111",
"1111111111   %%%%%%%%%%=<<<<<<<<<<<<<<<<<<*%%%%%%%%%%%%++   1111",
"1111111111  %%%%%%%%%%%*<<<<<<<<<<<<<<<<<<<<&%%%%%%%%%++   11111",
"1111111111  %%%%%%%%%%%&<<<<<<<<<<<<<<<<<<<<<%%%%%%%%+++   11111",
"111111111   %%%%%%%%%%%%%<<<<<<<,<<<<<<<<<<<<*&%%%%%%++   111111",
"11111111    %%%%%%%%%%%%%&*<<<<<<<<<<<<<<<<<<<*%%%%%%++   111111",
"11111111  ++%%%%%%%%%%%%%%%%<<<<<<,<<<<<<<<<<<;*&%%%%++  O111111",
"11111111  ++%%%%%%%%%%%%%%%%%%<<<<<<<<<<<<<<<<<:*%+++    1111111",
"1111111  +++%%%======*&%%%%%%%%%<<<<<<<<<<<<<<<:*%+++   11111111",
"111111   +++%%<<<<<<<:*%%%%%%%%%%&<<<<<<<<<<<<<*&%++   111111111",
"111111  +++%%=<<<<<<<<<==*&%%%%%%%%*<<<<<<<<<<*+++++   111332111",
"111111  ++%%%=<<<<<<<<<<<:*%%%%%%%%&*==<<<<<<*&++++   1113773111",
"111111  ++%%%*<<<<<<<<<<<<<*&%%%%%%%%%%*:>>:*%+++    11113993111",
"111111  ++%%%&*<<<<<<<<<<<<<*%%%%%%%%%%&*==*&++++   111113993111",
"111111  ++%%%%%*<<<<<<<<<<<<=%%%%%%%%%%%%%%%%+++   1111119993111",
"111111  ++%%%%%&*=<<<<<<<<<<=%%%%%%%%%%%%%%+++     1111119993111",
"111111  ++%%%%%%%%%<<<<<<<<<=%%%%%%%%%%%%%%+++   111111239983111",
"111111  ++%%%%%%%%%<<<<<<<<>=%%%%%%%%%%+++++  111111111399983111",
"111111  ++%%%%%%%%%%<<<<<<<:*%%%%%%%%%%+++++  111111111399973111",
"111111  ++%%%%%%%%%%%&*====*&%%%%%++++++    11111111111399632111",
"111111  ++%%%%%%%%%%%%%%%%%%%%%%%+++++++    11111111111399311111",
"111111  ++%%%%%%%%%%%%%%%%+++++++++++    11111111111111399311111",
"111111  ++++$%%%%%%%%%%%%%++++++++++     11111111112333699311111",
"11111111  ++#%%%%%%%%%++++++        1111111111111113999999311111",
"11111111  ++++++++++++++++++        1111111112333339999999323333",
"11111111    ++++++++++        1111111111111113799999996333237899",
"11111111    ++++++++++        1111111233333339999999973111139999",
"1111111111              1111111111111378999999993333332111999999",
"1111111111              1111111111123999999999311111111112999931",
"1111111111111111111111111111111111139999993333211111111113995321",
"1111111111111111111111111111111111139997311111111112333399993111",
"1111111111111111111111111111111111123333211111111119999999983111",
"1111111111111111111111111111111111111111111111123399999999873111",
"1111111111111111111111111111111111111111111111199999996333332111",
"1111111111111111111111111111111111111111111111199999083111111111"
};
