/* XPM */
static char *e4ff8735fcf14da5c8654fb5002efcce9qd9g62NJY1Hq6s5[] = {
/* columns rows colors chars-per-pixel */
"32 32 6 1 ",
"  c black",
". c #B2970A",
"X c #D0B83A",
"o c #D8C879",
"O c #7EB9D9",
"+ c #B2C8D4",
/* pixels */
"OOOOOOOOOOOOOOOOOOOOOOOOOOOOOOOO",
"OOOO+OOOOOOOOOOOOOOOOOOOOOOOOOOO",
"OO+++OOOOOO+++OOOOOOOOOOOOOOOOOO",
"O++OOOOO++++O++++OOOOOOOOOOOOOOO",
"O+OOOOO++OOOOOOOOOOOOOOO    OOOO",
"OOOOO++OOOOOOOOOOOOOO    XX  OOO",
"OOOO++OOOOOOOOOOO    XXXXXXX  OO",
"OOO++OOOOOOOOOO   XXXXXXXXXXX OO",
"OOO+OOOOOOOOO   XXXXXXooooXXXX O",
"OOO+OOOOOOO   XXXXXXXXoooooXXX O",
"OOO+OOOOO   XXXXXXXXXXooooooXX O",
"OOOOOOOO  XXXXXXXXXXXXXXooooXX O",
"OOOOOOO  XXXXXXXXXXXXXXXXooXXX O",
"OOOOOO  XXXXooooooXXXXXXXXXXX  O",
"OOOOOO XXXXXooooooooXXXXXXXXX OO",
"OOOOO XXXXXXoooooooooXXXXXXXX OO",
"OOOOO XXXXXXXoooooooooXXXXXX  OO",
"OOOO  XXXXXXXXXXoooooooXXXXX OOO",
"OOOO .XXXXXXXXXXXoooooooXXX  OOO",
"OOO  .XooooXXXXXXXoooooXXX  OOOO",
"OOO .XXooooooXXXXXXXooXXX  OO+OO",
"OOO .XXXooooooXXXXXXXXXX  OOO+OO",
"OOO .XXXXXooooXXXXXXXXX  OOOO+OO",
"OOO .XXXXXXoooXXXXXXXX OOOOO++OO",
"OOO .XXXXXXXXXXXXXXX  OOOOOO+OOO",
"OOO .XXXXXXXXXXXXX  OOOOOOOO+OOO",
"OOOO .XXXXXXXX    OOOOOOOO+++OOO",
"OOOO  .....    OOOOOOOO++++OOO++",
"OOOOO       OOOOOOO++++OOOOOOO+O",
"OOOOOOOOOOOOOOOOOO++OOOOOOOOO+OO",
"OOOOOOOOOOOOOOOOOOOOOOOOOO++++OO",
"OOOOOOOOOOOOOOOOOOOOOOOO+++OOOOO"
};
