/* XPM */
static char *b6c97b803d3d47d5819e4c1219d260c1iZp1ZCbR8nEwO9J2[] = {
/* columns rows colors chars-per-pixel */
"32 32 8 1 ",
"  c black",
". c #4F722C",
"X c #D84747",
"o c #6C8B4D",
"O c #F08A00",
"+ c #8DA971",
"@ c #7EB9D9",
"# c white",
/* pixels */
"@@@@@@@@@@@@@@@@@@@@@@@@@@@@@@@@",
"@XX@XX@@@@@@@@@@@@@@@@@@@@@@@@@@",
"XXXXXXX@@@@@@@@@@@@@@@@@@@@@@@@@",
"XXXXXXX@@@@@@@@@@@@@@@@@@@@@@@@@",
"@XXXXX@@@@@@@@@@@@@@@@@@@@@@@@@@",
"@@XXX@@@@@@@@@@@@@@@@@@@@@@@@@@@",
"@@@X@@@@     @@@@@@@@@@@@@@@@@@@",
"@@@@@@@ +++++ @@@@@@@@@@@@@@@@@@",
"@@@@@@ +ooooo+ @@@@@@@@@@@@@@@@@",
"@@@@@ +ooooooo+ @@@@@@@@@@@@@@@@",
"@@@@@ oo###oooo @@@@@@@@@@@@@@@@",
"@@@@@ .o  #oooo @@@@@@@@@@@@@@@@",
"@@@@ O o# #oooo @@@@@@@@@@@@@@@@",
"@@  OO .  #ooo. @@@@@@@@  @@@@@@",
"@ OOOOO ooooo. @@@@@@@@ + @@@@@@",
"@ OOOOO oooo. @@@@@@@@ +o @@@@@@",
"@@      .ooo.  @@@@    oo @@@@@@",
"@@@@@@@@ ooo++     ++++oo @@@@@@",
"@@@@@@  +ooooo+++++oooooo @@@@@@",
"@@@@@ ++ooooooooooooooooo @@@@@@",
"@@@@@ oooooooo  oooooooo. @@@@@@",
"@@@@ +ooo oooo++      oo @@@@@@@",
"@@@@ oooo oooooo+++++ oo @@@@@@@",
"@@@@ oooo .ooooooo.. oo. @@@@@@@",
"@@@@ ooooo .oooo..  ooo @@@@@@@@",
"@@@@@ .oooo ....  oooo. @@@@@@@@",
"@@@@@ ..oooo    ooooo. @@@@@@@@@",
"@@@@@@  ..ooooooooo.. @@@@@@@@@@",
"@@@@@@@@  .........  @@@@@@@@@@@",
"@@@@@@@@@@         @@@@@@@@@@@@@",
"@@@@@@@@@@@ OOOOOO @@@@@@@@@@@@@",
"@@@@@@@@@@@       @@@@@@@@@@@@@@"
};
