/* XPM */
static char *d0a3df4616864fe58008e76ac659855dgafP3wY2IUFBYkn7[] = {
/* columns rows colors chars-per-pixel */
"32 32 7 1 ",
"  c #7EB9D9",
". c black",
"X c #EEE94B",
"o c #FBF406",
"O c white",
"+ c #D6D011",
"@ c #F08A00",
/* pixels */
"                                ",
"                                ",
"                                ",
"                                ",
"                                ",
"                                ",
"                   .....        ",
"                  .XXXXX.       ",
"                 .XoooooX.      ",
"                .XoooooooX.     ",
"                .ooooOOOoo.     ",
"                .ooooO..o+.     ",
"                .ooooO.Oo.@.    ",
"      ..        .+oooO..+.@@..  ",
"      .X.        .+ooooo.@@@@@. ",
"      .oX.        .+oooo.@@@@@. ",
"      .oo....    ..+ooo+......  ",
"      .ooXXXX.....XXooo.        ",
"      .ooooooXXXXXoooooX..      ",
"      .oooooooooooooooooXX.     ",
"      .+oooooooo..oooooooo.     ",
"       .oo......XXoooo.oooX.    ",
"       .oo.XXXXXoooooo.oooo.    ",
"       .+oo.++ooooooo+.oooo.    ",
"        .ooo..++oooo+.ooooo.    ",
"        .+oooo..++++.oooo+.     ",
"         .+ooooo....oooo++.     ",
"          .++ooooooooo++..      ",
"           ..+++++++++..        ",
"             .........          ",
"             .@@@@@@.           ",
"              .......           "
};
