/* XPM */
static char *d2f1b542dc2944cee7d985565ac62bddZzp50ETQ50L4r6aW[] = {
/* columns rows colors chars-per-pixel */
"64 64 16 1 ",
"  c black",
". c #B46800",
"X c #F08A00",
"o c #F2EB09",
"O c #F4ED08",
"+ c #F9F207",
"@ c #FBF406",
"# c #FAF30A",
"$ c #F9F213",
"% c #F8F117",
"& c #FBF516",
"* c #E6E120",
"= c #FCF635",
"- c #FCF744",
"; c #7EB9D9",
": c white",
/* pixels */
";;;;;;;;;;;;;;;;;;;;;;;;;;;;;;;;;;;;;;;;;;;;;;;;;;;;;;;;;;;;;;;;",
";;;;;;;;;;;;;;;;;;;;;;;;;;;;;;;;;;;;;;;;;;;;;;;;;;;;;;;;;;;;;;;;",
";;;;;;;;;;;;;;;;;;;;;;;;;;;;;;;;;;;;;;;;;;;;;;;;;;;;;;;;;;;;;;;;",
";;;;;;;;;;;;;;;;;;;;;;;;;;;;;;;;;;;;;;;;;;;;;;;;;;;;;;;;;;;;;;;;",
";;;;;;;;;;;;;;;;;;;;;;;;;;;;;;;;;;;;;;;;;;;;;;;;;;;;;;;;;;;;;;;;",
";;;;;;;;;;;;;;;;;;;;;;;;;;;;;;;;;;;;;;;;;;;;;;;;;;;;;;;;;;;;;;;;",
";;;;;;;;;;;;;;;;;;;;;;;;;;;;;;;;;;;;;;;;;;;;;;;;;;;;;;;;;;;;;;;;",
";;;;;;;;;;;;;;;;;;;;;;;;;;;;;;;;;;;;;;;;;;;;;;;;;;;;;;;;;;;;;;;;",
";;;;;;;;;;;;;;;;;;;;;;;;;;;;;;;;;;;;;;;;;;;;;;;;;;;;;;;;;;;;;;;;",
";;;;;;;;;;;;;;;;;;;;;;;;;;;;;;;;;;;;;;;;;;;;;;;;;;;;;;;;;;;;;;;;",
";;;;;;;;;;;;;;;;;;;;;;;;;;;;;;;;;;;;;;;;;;;;;;;;;;;;;;;;;;;;;;;;",
";;;;;;;;;;;;;;;;;;;;;;;;;;;;;;;;;;;;;;;;;;;;;;;;;;;;;;;;;;;;;;;;",
";;;;;;;;;;;;;;;;           ;;;;;;;;;;;;;;;;;;;;;;;;;;;;;;;;;;;;;",
";;;;;;;;;;;;;;;;           ;;;;;;;;;;;;;;;;;;;;;;;;;;;;;;;;;;;;;",
";;;;;;;;;;;;;;  -----------  ;;;;;;;;;;;;;;;;;;;;;;;;;;;;;;;;;;;",
";;;;;;;;;;;;;;  -----------  ;;;;;;;;;;;;;;;;;;;;;;;;;;;;;;;;;;;",
";;;;;;;;;;;;  @@@%%%%%%%@@@@@   ;;;;;;;;;;;;;;;;;;;;;;;;;;;;;;;;",
";;;;;;;;;;;;  @@@@@@@@@@@@@@@   ;;;;;;;;;;;;;;;;;;;;;;;;;;;;;;;;",
";;;;;;;;;;  @@@$#@@@@@@@@#@@--  ;;;;;;;;;;;;;;;;;;;;;;;;;;;;;;;;",
";;;;;;;;;;  @@@&=----=&@@@@@--  ;;;;;;;;;;;;;;;;;;;;;;;;;;;;;;;;",
";;;;;;;;;;  @@@=::::::=@@@@#--  ;;;;;;;;;;;;;;;;;;;;;;;;;;;;;;;;",
";;;;;;;;;;  @@@@::::::-@@@@@--  ;;;;;;;;;;;;;;;;;;;;;;;;;;;;;;;;",
";;;;;;;;;;  @@@@    ::-@@@@@--  ;;;;;;;;;;;;;;;;;;;;;;;;;;;;;;;;",
";;;;;;;;;;  @@@@    ::-@@@@@--  ;;;;;;;;;;;;;;;;;;;;;;;;;;;;;;;;",
";;;;;;;;  ..  @@::  ::-@@@@@--  ;;;;;;;;;;;;;;;;;;;;;;;;;;;;;;;;",
";;;;;;;;  ..  @@::  ::-@@@@+--  ;;;;;;;;;;;;;;;;;;;;;;;;;;;;;;;;",
";;;;    ..XX  @@    ::-@@@@@--  ;;;;;;;;;;;;;;;;    ;;;;;;;;;;;;",
";;;;    ..XX  @@    ::=@@+@@--  ;;;;;;;;;;;;;;;;    ;;;;;;;;;;;;",
";;  ..XXXXXX..  **@@@@&@@@--  ;;;;;;;;;;;;;;;;  --  ;;;;;;;;;;;;",
";;  ..XXXXXX..  **@@@@@@@@--  ;;;;;;;;;;;;;;;;  --  ;;;;;;;;;;;;",
";;  ..........  **@@@@@@--  ;;;;;;;;;;;;;;;;  ----  ;;;;;;;;;;;;",
";;  ..........  **+@@@@@--  ;;;;;;;;;;;;;;;;  ----  ;;;;;;;;;;;;",
";;;;            **@@@@@@--    ;;;;;;;;        ----  ;;;;;;;;;;;;",
";;;;            **@@@@@@----  ;;;;;;;;        ----  ;;;;;;;;;;;;",
";;;;;;;;;;;;;;;;  **@@@@@---          ------------  ;;;;;;;;;;;;",
";;;;;;;;;;;;;;;;  **@@@@@@--          ------------  ;;;;;;;;;;;;",
";;;;;;;;;;;;    ***@@@@#@@--------------%%%%%$#@--  ;;;;;;;;;;;;",
";;;;;;;;;;;;    ***@@@@@@@--------------@@@@@@@@--  ;;;;;;;;;;;;",
";;;;;;;;;;  *****$#@@@@@@@@@@@@@@@%%%$#@@@@@@@@@--  ;;;;;;;;;;;;",
";;;;;;;;;;  *****@@@@@@@@@@@@@@@@@@@@@@@@@@@@@@+--  ;;;;;;;;;;;;",
";;;;;;;;;;  **%$#@@@@@@@@@--     @@@@@@@@@@@@@@---  ;;;;;;;;;;;;",
";;;;;;;;;;  **@@@@  **@@@@--     @@@@@@@@@@@@@@---  ;;;;;;;;;;;;",
";;;;;;;;  ****@@@@  **@@@@------            @@@-  ;;;;;;;;;;;;;;",
";;;;;;;;  ****@@@@  **@@@@------            @@@-  ;;;;;;;;;;;;;;",
";;;;;;;;  ***@@@@@  **@@@@@#$-------------  @@@-  ;;;;;;;;;;;;;;",
";;;;;;;;  **@@@@@@  **+@@@@@@@@$----------  @@--  ;;;;;;;;;;;;;;",
";;;;;;;;  **@@@@@@  *****@@@@@@#$%%*****  @@@@--  ;;;;;;;;;;;;;;",
";;;;;;;;  **@@@@@@  *****@@@@@@+Ooo*****  @@----  ;;;;;;;;;;;;;;",
";;;;;;;;  ****@@@@@@  ***@@@@@@*****    @@@@--  ;;;;;;;;;;;;;;;;",
";;;;;;;;  ****+@@@@@  ***oooooo*****    @@@@--  ;;;;;;;;;;;;;;;;",
";;;;;;;;;;  ***@@@@@@@  ********    @@@@@@@@--  ;;;;;;;;;;;;;;;;",
";;;;;;;;;;  ***O+@@@@@  ********    @@@@@@----  ;;;;;;;;;;;;;;;;",
";;;;;;;;;;  *****@@@@@@@        @@@@@@@@----  ;;;;;;;;;;;;;;;;;;",
";;;;;;;;;;  ****;;***@@;;      ;;@@@@+;;----  ;;;;;;;;;;;;;;;;;;",
";;;;;;;;;;;;   ;;;;**@;;;;@@@@;;;;@@@;;;;-  ;;;;;;;;;;;;;;;;;;;;",
";;;;;;;;;;;;;;;;;;;;;;;;;;;;;;;;;;;;;;;;;;;;;;;;;;;;;;;;;;;;;;;;",
";;;;;;;;;;;;;;;;;;;;;;;;;;;;;;;;;;;;;;;;;;;;;;;;;;;;;;;;;;;;;;;;",
";;;;;;;;;;;;;;;;;;;;;;;;;;;;;;;;;;;;;;;;;;;;;;;;;;;;;;;;;;;;;;;;",
";;;;;;;;;;;;;;;;;;;;;;;;;;;;;;;;;;;;;;;;;;;;;;;;;;;;;;;;;;;;;;;;",
";;;;;;;;;;;;;;;;;;;;;;;;;;;;;;;;;;;;;;;;;;;;;;;;;;;;;;;;;;;;;;;;",
";;;;;;;;;;;;;;;;;;;;;;;;;;;;;;;;;;;;;;;;;;;;;;;;;;;;;;;;;;;;;;;;",
";;;;;;;;;;;;;;;;;;;;;;;;;;;;;;;;;;;;;;;;;;;;;;;;;;;;;;;;;;;;;;;;",
";;;;;;;;;;;;;;;;;;;;;;;;;;;;;;;;;;;;;;;;;;;;;;;;;;;;;;;;;;;;;;;;",
";;;;;;;;;;;;;;;;;;;;;;;;;;;;;;;;;;;;;;;;;;;;;;;;;;;;;;;;;;;;;;;;"
};
