/* XPM */
static char *d00f5e04d2e4445881d0fbed3442b548lyfC4ocXw8RZCIlT[] = {
/* columns rows colors chars-per-pixel */
"64 64 8 1 ",
"  c black",
". c #B46800",
"X c #F08A00",
"o c #7EB9D9",
"O c #CCB69B",
"+ c #F0E9CD",
"@ c #F2ECE5",
"# c white",
/* pixels */
"oooooooooooooooooooooooooooooooooooooooooooooooooooooooooooooooo",
"oooooooooooooooooooooooooooooooooooooooooooooooooooooooooooooooo",
"oooooooooooooooooooooooooooooooooooooooooooooooooooooooooooooooo",
"oooooooooooooooooooooooooooooooooooooooooooooooooooooooooooooooo",
"oooooooooooooooooooooooooooooooooooooooooooooooooooooooooooooooo",
"oooooooooooooooooooooooooooooooooooooooooooooooooooooooooooooooo",
"oooooooooooooooooooooooooooooooooooooooooooooooooooooooooooooooo",
"oooooooooooooooooooooooooooooooooooooooooooooooooooooooooooooooo",
"oooooooooooooooooooooooooooooooooooooooooooooooooooooooooooooooo",
"oooooooooooooooooooooooooooooooooooooooooooooooooooooooooooooooo",
"oooooooooooooooooooooooooooooooooooooooooooooooooooooooooooooooo",
"oooooooooooooooooooooooooooooooooooooooooooooooooooooooooooooooo",
"oooooooooooooooo           ooooooooooooooooooooooooooooooooooooo",
"oooooooooooooooo           ooooooooooooooooooooooooooooooooooooo",
"oooooooooooooo  OOOOOOOOOOO  ooooooooooooooooooooooooooooooooooo",
"oooooooooooooo  OOOOOOOOOOO  ooooooooooooooooooooooooooooooooooo",
"oooooooooooo  OO+++++++++++OO   oooooooooooooooooooooooooooooooo",
"oooooooooooo  OO+++++++++++OO   oooooooooooooooooooooooooooooooo",
"oooooooooo  OO++++++++++++++OO  oooooooooooooooooooooooooooooooo",
"oooooooooo  OO++++++++++++++OO  oooooooooooooooooooooooooooooooo",
"oooooooooo  OO++######++++++OO  oooooooooooooooooooooooooooooooo",
"oooooooooo  OO++######++++++OO  oooooooooooooooooooooooooooooooo",
"oooooooooo  OO++    ##++++++OO  oooooooooooooooooooooooooooooooo",
"oooooooooo  OO++    ##++++++OO  oooooooooooooooooooooooooooooooo",
"oooooooo  ..  ++##  ##++++++OO  oooooooooooooooooooooooooooooooo",
"oooooooo  ..  ++##  ##++++++OO  oooooooooooooooooooooooooooooooo",
"oooo    ..XX  ++    ##++++++OO  oooooooooooooooo    oooooooooooo",
"oooo    ..XX  ++    ##++++++OO  oooooooooooooooo    oooooooooooo",
"oo  ..XXXXXX..  ++++++++++OO  oooooooooooooooo  OO  oooooooooooo",
"oo  ..XXXXXX..  ++++++++++OO  oooooooooooooooo  OO  oooooooooooo",
"oo  ..........  @@@+++++++  oooooooooooooooo  @@OO  oooooooooooo",
"oo  ..........  @@@@++++++  oooooooooooooooo  @@OO  oooooooooooo",
"oooo            @@@@++++++    oooooooo        @@OO  oooooooooooo",
"oooo            OOOO++++++@@  oooooooo        @@OO  oooooooooooo",
"oooooooooooooooo  OO++++++@@          ++++++++@@OO  oooooooooooo",
"oooooooooooooooo  OO++++++++          ++++++++@@OO  oooooooooooo",
"oooooooooooo    OOOO++++++++++++++++++++++++++@@OO  oooooooooooo",
"oooooooooooo    OOOO++++++++++++++++++++++++++@@OO  oooooooooooo",
"oooooooooo  OOOO++++++++++++++++++++++++++++++@@OO  oooooooooooo",
"oooooooooo  OOOO++++++++++++++++++++++++++++++@@OO  oooooooooooo",
"oooooooooo  OO++++++++++++@@     OOOOOOOOOOO++@@OO  oooooooooooo",
"oooooooooo  OO++++  @@++++@@     OOOOOOOOOOO++@@OO  oooooooooooo",
"oooooooo  OO++++++  @@++++@@@@@+            @@OO  oooooooooooooo",
"oooooooo  OO++++++  @@++++@@@@@+            @@OO  oooooooooooooo",
"oooooooo  OO++++++  @@++++++++@@@++@@+OOOO  @@OO  oooooooooooooo",
"oooooooo  OO++++++  @@++++++++@@@+@@@+OOOO  @@OO  oooooooooooooo",
"oooooooo  OO++++++  @@@@++++++++++@@OOOO  @@@@OO  oooooooooooooo",
"oooooooo  OO++++++  @@@@++++++++++@@OOOO  @@@@OO  oooooooooooooo",
"oooooooo  OO@@@@++++  OO@@@@@@OOOOOO    ++@@OO  oooooooooooooooo",
"oooooooo  OO@@@@++++  OO@@@@@@OOOOOO    ++@@OO  oooooooooooooooo",
"oooooooooo  OO@@++++++  OOOOOOOO    ++++@@@@OO  oooooooooooooooo",
"oooooooooo  OO@@++++++  OOOOOOOO    ++++@@@@OO  oooooooooooooooo",
"oooooooooo  OO@@++++++++        ++++++++OOOOOOoooooooooooooooooo",
"oooooooooo  OO@@oo+++++oo      oo+++++ooOOOO  oooooooooooooooooo",
"oooooooooooo   oooo+++oooo++++oooo+++ooooO  oooooooooooooooooooo",
"oooooooooooooooooooooooooooooooooooooooooooooooooooooooooooooooo",
"oooooooooooooooooooooooooooooooooooooooooooooooooooooooooooooooo",
"oooooooooooooooooooooooooooooooooooooooooooooooooooooooooooooooo",
"oooooooooooooooooooooooooooooooooooooooooooooooooooooooooooooooo",
"oooooooooooooooooooooooooooooooooooooooooooooooooooooooooooooooo",
"oooooooooooooooooooooooooooooooooooooooooooooooooooooooooooooooo",
"oooooooooooooooooooooooooooooooooooooooooooooooooooooooooooooooo",
"oooooooooooooooooooooooooooooooooooooooooooooooooooooooooooooooo",
"oooooooooooooooooooooooooooooooooooooooooooooooooooooooooooooooo"
};
