/* XPM */
static char *_11cb783c5a74292806a1507da2f888e6hifXESLaCGnas3l[] = {
/* columns rows colors chars-per-pixel */
"64 64 60 1 ",
"  c black",
". c #241500",
"X c #64440A",
"o c #774C08",
"O c #905300",
"+ c #955A04",
"@ c #9A5D04",
"# c #A96504",
"$ c #AD6704",
"% c #B46800",
"& c #BB6C00",
"* c #C06F00",
"= c #A02061",
"- c #BC407F",
"; c #E48300",
": c #F08A00",
"> c #C9C305",
", c #DDD705",
"< c #D5D01B",
"1 c #F1EA06",
"2 c #FBF406",
"3 c #F7F00A",
"4 c #FAF30A",
"5 c #FBF40A",
"6 c #FAF30D",
"7 c #FBF40F",
"8 c #EBE617",
"9 c #EFE912",
"0 c #EFE815",
"q c #E9E31D",
"w c #F1EB10",
"e c #F3EC10",
"r c #F1EB1A",
"t c #FBF411",
"y c #FBF517",
"u c #FBF519",
"i c #FBF51C",
"p c #CAC636",
"a c #DED93C",
"s c #E6E120",
"d c #FBF522",
"f c #FBF527",
"g c #FBF528",
"h c #FCF62B",
"j c #FBF52D",
"k c #FCF62E",
"l c #F3EE36",
"z c #F5EF35",
"x c #FAF532",
"c c #FBF63A",
"v c #FCF638",
"b c #FCF73D",
"n c #FCF740",
"m c #FCF744",
"M c #B75687",
"N c #7EB9D9",
"B c #CCB69B",
"V c #F0DFCB",
"C c #F2ECE5",
"Z c white",
/* pixels */
"NNNNNNNNNNNNNNNNNNNNNNNNNNNNNNNNNNNNNNNNNNNNNNNNNNNNNNNNNNNNNNNN",
"NNNNNNNNNNNNNNNNNNNNNNNNNNNNNNNNNNNNNNNNNNNNNNNNNNNNNNNNNNNNNNNN",
"NNNNNNNNNNNNNNNNNNNNNNNNNNNNNNNNNNNNNNNNNNNNNNNNNNNNNNNNNNNNNNNN",
"NNNNNNNNNNNNNNNNNNNNNNNNNNNNNNNNNNNNNNNNNNNNNNNNNNNNNNNNNNNNNNNN",
"NNNNNNNNNNNNNNNNNNNNNNNNNNNNNNNNNNNNNNNNNNNNNNNNNNNNNNNNNNNNNNNN",
"NNNNNNNNNNNNNNNNNNNNNNNN====NNNNNNNN====NNNNNNNNNNNNNNNNNNNNNNNN",
"NNNNNNNNNNNNNNNNNNNNNNN=MMMM=NNNNNN=MMMM=NNNNNNNNNNNNNNNNNNNNNNN",
"NNNNNNNNNNNNNNNNNNNNNN=M----M==NN==M----M=NNNNNNNNNNNNNNNNNNNNNN",
"NNNNNNNNNNNNNNNNNNNNN=M------MM==MM------M=NNNNNNNNNNNNNNNNNNNNN",
"NNNNNNNNNNNNNNNNNNNNN=---------MM---------=NNNNNNNNNNNNNNNNNNNNN",
"NNNNNNNNNNNNNNNNNNNNN=--------------------=NNNNNNNNNNNNNNNNNNNNN",
"NNNNNNNNNNNNNNNNNNNNN=--------------------=NNNNNNNNNNNNNNNNNNNNN",
"NNNNNNNNNNNNNNNNNNNNN=--------------------=NNNNNNNNNNNNNNNNNNNNN",
"NNNNNNNNNNNNNNNNNNNNN=--------------------=NNNNNNNNNNNNNNNNNNNNN",
"NNNNNNNNNNNNNNNNNNNNN=--------------------=NNNNNNNNNNNNNNNNNNNNN",
"NNNNNNNNNNNNNNNNNNNNN=--------------------=NNNNNNNNNNNNNNNNNNNNN",
"NNNNNNNNNNNNNNNNNNNNNN=------------------=NNNNNNNNNNNNNNNNNNNNNN",
"NNNNNNNNNNNNNNNNNNNNNNN=----------------=NNNNNNNNNNNNNNNNNNNNNNN",
"NNNNNNNNNNNNNNNNNNNNNNNN=--------------=NNNNNNNNNNNNNNNNNNNNNNNN",
"NNNNNNNNNNNNNNNNNNNNNNNNN=------------=NNNNNNNNNNNNNNNNNNNNNNNNN",
"NNNNNNNNNNNNNNNNNNNNNNNNNN=----------=NNNNNNNNNNNNNNNNNNNNNNNNNN",
"NNNNNNNNNNNNNNNNNNNNNNNNNNN=M------M=NNNNNNNNNNNNNNNNNNNNNNNNNNN",
"NNNNNNNNNNNNNNN     NNNNNNNN=M----M=NNNNNNNNNNNNNNNNNNNNNNNNNNNN",
"NNNNNNNNNNNNNN mmmmm NNNNNNNN=M--M=NNNNNNNNNNN    NNNNNNNNNNNNNN",
"NNNNNNNNNNNN  224664m NNNNNNNN=MM=NNNNNNNNNNN VVVV NNNNNNNNNNNNN",
"NNNNNNNNNNNN pt25dhg7m NNNNNNNN==NNNNNNNNNNN VVVVVV NNNNNNNNNNNN",
"NNNNNNNNNNNN pt2iZZZtm NNNNNNNNNNNNNNNNNNNN VVVVVVVB NNNNNNNNNNN",
"NNNNNNNNNNNN pt2iZ  2m.NNNNNNNNNNNNNNNNNNNN VVZZZVVB NNNNNNNNNNN",
"NNNNNNNNNNNN pt2iZ Z2 * NNNNNNNNNNNNNNNNNNN VV  ZVVB NNNNNNNNNNN",
"NN  NNNNNNNN pr5uZ  m.:*  NNNNNNNNNNNNNNNN + VZ ZVVB NNNNNNNNNNN",
"NN p NNNNNNNN pp522m %;;;% NNNNNNNNNNNNN  %; V  ZVBB NNNNNNNN  N",
"NN pm NNNNNNNN pt22m OOOOO NNNNNNNNNNNN &;;;o VVVBB NNNNNNNN B N",
"NN pm    NNNN ppt24m      NNNNNNNNNNNNN @$$#X VVVB NNNNNNNN VB N",
"NN pbcccn     py22m NNNNNNNNNNNNNNNNNNNN      VVVBB NNN     VB N",
"NN pi544fccvvvvt22mm  NNNNNNNNNNNNNNNNNNNNNNNN VVVB     VVVVVB N",
"NN pf2222541>>w5222mmm NNNNNNNNNNNNNNNNNNNNN  VVVVVVVVVVVVVVVB N",
"NNN p2ppppp   at2m m5m NNNNNNNNNNNNNNNNNNNN VVVVVVCBBBVVVVVVCB N",
"NNN p2      anj72m m2mm NNNNNNNNNNNNNNNNNNN VVV VVV    BBBVVB  N",
"NNN pu  plzxit2mmm m24m NNNNNNNNNNNNNNNNNN VVVV VVVVCB     VB NN",
"NNN  pu  p<0e22emm m2em NNNNNNNNNNNNNNNNNN VVVV VVCCVCCBB  CB NN",
"NNNN pi2  pp<998m ,23mp NNNNNNNNNNNNNNNNNN BVVV VVVCVVB   VB  NN",
"NNNN  pkt   pmmm ,238s NNNNNNNNNNNNNNNNNNNN VCVC VVVB   VVVB NNN",
"NNNNN  pmi2     ,esspp NNNNNNNNNNNNNNNNNNNN BBCCV     VVVVB  NNN",
"NNNNNN  ppeeeeeeqppp  NNNNNNNNNNNNNNNNNNNNNN  BCVVVVVVVVBB  NNNN",
"NNNNNNN   pppppppp  NNNNNNNNNNNNNNNNNNNNNNNNNN BBBBBBBBB   NNNNN",
"NNNNNNNNN         NNNNNNNNNNNNNNNNNNNNNNNNNNNNN          NNNNNNN",
"NNNNNNNNNN ;;;;; NNNNNNNNNNNNNNNNNNNNNNNNNNNNNNN ;::::: NNNNNNNN",
"NNNNNNNNNN      NNNNNNNNNNNNNNNNNNNNNNNNNNNNNNNNN      NNNNNNNNN",
"NNNNNNNNNNNNNNNNNNNNNNNNNNNNNNNNNNNNNNNNNNNNNNNNNNNNNNNNNNNNNNNN",
"NNNNNNNNNNNNNNNNNNNNNNNNNNNNNNNNNNNNNNNNNNNNNNNNNNNNNNNNNNNNNNNN",
"NNNNNNNNNNNNNNNNNNNNNNNNNNNNNNNNNNNNNNNNNNNNNNNNNNNNNNNNNNNNNNNN",
"NNNNNNNNNNNNNNNNNNNNNNNNNNNNNNNNNNNNNNNNNNNNNNNNNNNNNNNNNNNNNNNN",
"NNNNNNNNNNNNNNNNNNNNNNNNNNNNNNNNNNNNNNNNNNNNNNNNNNNNNNNNNNNNNNNN",
"NNNNNNNNNNNNNNNNNNNNNNNNNNNNNNNNNNNNNNNNNNNNNNNNNNNNNNNNNNNNNNNN",
"NNNNNNNNNNNNNNNNNNNNNNNNNNNNNNNNNNNNNNNNNNNNNNNNNNNNNNNNNNNNNNNN",
"NNNNNNNNNNNNNNNNNNNNNNNNNNNNNNNNNNNNNNNNNNNNNNNNNNNNNNNNNNNNNNNN",
"NNNNNNNNNNNNNNNNNNNNNNNNNNNNNNNNNNNNNNNNNNNNNNNNNNNNNNNNNNNNNNNN",
"NNNNNNNNNNNNNNNNNNNNNNNNNNNNNNNNNNNNNNNNNNNNNNNNNNNNNNNNNNNNNNNN",
"NNNNNNNNNNNNNNNNNNNNNNNNNNNNNNNNNNNNNNNNNNNNNNNNNNNNNNNNNNNNNNNN",
"NNNNNNNNNNNNNNNNNNNNNNNNNNNNNNNNNNNNNNNNNNNNNNNNNNNNNNNNNNNNNNNN",
"NNNNNNNNNNNNNNNNNNNNNNNNNNNNNNNNNNNNNNNNNNNNNNNNNNNNNNNNNNNNNNNN",
"NNNNNNNNNNNNNNNNNNNNNNNNNNNNNNNNNNNNNNNNNNNNNNNNNNNNNNNNNNNNNNNN",
"NNNNNNNNNNNNNNNNNNNNNNNNNNNNNNNNNNNNNNNNNNNNNNNNNNNNNNNNNNNNNNNN",
"NNNNNNNNNNNNNNNNNNNNNNNNNNNNNNNNNNNNNNNNNNNNNNNNNNNNNNNNNNNNNNNN"
};
