/* XPM */
static char *result[] = {
/* columns rows colors chars-per-pixel */
"64 64 144 2 ",
"   c black",
".  c #241500",
"X  c #3B4C2A",
"o  c #3B5423",
"O  c #3F542A",
"+  c #64440A",
"@  c #774C08",
"#  c #42562F",
"$  c #435630",
"%  c #4A5F35",
"&  c #4A5F36",
"*  c #52752F",
"=  c #4C6136",
"-  c #4D6337",
";  c #4E6637",
":  c #4F6737",
">  c #53673F",
",  c #536B3B",
"<  c #556E3D",
"1  c #537530",
"2  c #557833",
"3  c #567833",
"4  c #57723D",
"5  c #58713F",
"6  c #5A7B38",
"7  c #5B7A3C",
"8  c #5C783F",
"9  c #5E7F3D",
"0  c #627F44",
"q  c #617C46",
"w  c #905300",
"e  c #955A04",
"r  c #9A5D04",
"t  c #A96504",
"y  c #AD6704",
"u  c #B46800",
"i  c #BB6C00",
"p  c #C06F00",
"a  c #A02061",
"s  c #BC407F",
"d  c #628241",
"f  c #628043",
"g  c #648344",
"h  c #648246",
"j  c #658545",
"k  c #678647",
"l  c #678449",
"z  c #678648",
"x  c #678748",
"c  c #67854A",
"v  c #698849",
"b  c #69894A",
"n  c #6A894B",
"m  c #6B8A4B",
"M  c #6B8A4C",
"N  c #6C8B4D",
"B  c #6D8C4E",
"V  c #6D8C4F",
"C  c #6E8C4F",
"Z  c #6D8951",
"A  c #6E8D50",
"S  c #6F8D50",
"D  c #6F8C51",
"F  c #6F8D51",
"G  c #718E53",
"H  c #718E54",
"J  c #739055",
"K  c #739056",
"L  c #749057",
"P  c #749257",
"I  c #759257",
"U  c #759258",
"Y  c #769259",
"T  c #77935A",
"R  c #78935B",
"E  c #78935C",
"W  c #78945C",
"Q  c #7B975F",
"!  c #E48300",
"~  c #F08A00",
"^  c #C9C305",
"/  c #DDD705",
"(  c #D5D01B",
")  c #D5D11B",
"_  c #F1EA06",
"`  c #FBF406",
"'  c #FBF407",
"]  c #F7F00A",
"[  c #F7F10A",
"{  c #F9F208",
"}  c #FAF309",
"|  c #F8F10A",
" . c #FAF30A",
".. c #FAF30B",
"X. c #FBF408",
"o. c #FBF409",
"O. c #FBF40A",
"+. c #FBF40B",
"@. c #FAF30D",
"#. c #FBF40D",
"$. c #FBF40F",
"%. c #EBE517",
"&. c #EBE617",
"*. c #EFE912",
"=. c #EFE815",
"-. c #E9E31D",
";. c #F1EB10",
":. c #F3EC10",
">. c #F3ED10",
",. c #F1EB1A",
"<. c #FBF410",
"1. c #FBF411",
"2. c #FBF512",
"3. c #FBF413",
"4. c #FBF517",
"5. c #FBF519",
"6. c #FBF51A",
"7. c #FAF41C",
"8. c #FBF51C",
"9. c #FBF51F",
"0. c #CAC636",
"q. c #DED93C",
"w. c #E6E120",
"e. c #FBF522",
"r. c #FBF525",
"t. c #FBF527",
"y. c #FBF528",
"u. c #FCF62B",
"i. c #FBF52D",
"p. c #FCF62E",
"a. c #F3EE36",
"s. c #F5EF35",
"d. c #FAF532",
"f. c #FBF63A",
"g. c #FBF63B",
"h. c #FCF638",
"j. c #FCF73D",
"k. c #FCF740",
"l. c #FCF744",
"z. c #B75687",
"x. c #7EB9D9",
"c. c #97AC82",
"v. c #9EB38A",
"b. c white",
/* pixels */
"x.x.x.x.x.x.x.x.x.x.x.x.x.x.x.x.x.x.x.x.x.x.x.x.x.x.x.x.x.x.x.x.x.x.x.x.x.x.x.x.x.x.x.x.x.x.x.x.x.x.x.x.x.x.x.x.x.x.x.x.x.x.x.x.",
"x.x.x.x.x.x.x.x.x.x.x.x.x.x.x.x.x.x.x.x.x.x.x.x.x.x.x.x.x.x.x.x.x.x.x.x.x.x.x.x.x.x.x.x.x.x.x.x.x.x.x.x.x.x.x.x.x.x.x.x.x.x.x.x.",
"x.x.x.x.x.x.x.x.x.x.x.x.x.x.x.x.x.x.x.x.x.x.x.x.x.x.x.x.x.x.x.x.x.x.x.x.x.x.x.x.x.x.x.x.x.x.x.x.x.x.x.x.x.x.x.x.x.x.x.x.x.x.x.x.",
"x.x.x.x.x.x.x.x.x.x.x.x.x.x.x.x.x.x.x.x.x.x.x.x.x.x.x.x.x.x.x.x.x.x.x.x.x.x.x.x.x.x.x.x.x.x.x.x.x.x.x.x.x.x.x.x.x.x.x.x.x.x.x.x.",
"x.x.x.x.x.x.x.x.x.x.x.x.x.x.x.x.x.x.x.x.x.x.x.x.x.x.x.x.x.x.x.x.x.x.x.x.x.x.x.x.x.x.x.x.x.x.x.x.x.x.x.x.x.x.x.x.x.x.x.x.x.x.x.x.",
"x.x.x.x.x.x.x.x.x.x.x.x.x.x.x.x.x.x.x.x.x.x.x.x.a a a a x.x.x.x.x.x.x.x.a a a a x.x.x.x.x.x.x.x.x.x.x.x.x.x.x.x.x.x.x.x.x.x.x.x.",
"x.x.x.x.x.x.x.x.x.x.x.x.x.x.x.x.x.x.x.x.x.x.x.a z.z.z.z.a x.x.x.x.x.x.a z.z.z.z.a x.x.x.x.x.x.x.x.x.x.x.x.x.x.x.x.x.x.x.x.x.x.x.",
"x.x.x.x.x.x.x.x.x.x.x.x.x.x.x.x.x.x.x.x.x.x.a z.s s s s z.a a x.x.a a z.s s s s z.a x.x.x.x.x.x.x.x.x.x.x.x.x.x.x.x.x.x.x.x.x.x.",
"x.x.x.x.x.x.x.x.x.x.x.x.x.x.x.x.x.x.x.x.x.a z.s s s s s s z.z.a a z.z.s s s s s s z.a x.x.x.x.x.x.x.x.x.x.x.x.x.x.x.x.x.x.x.x.x.",
"x.x.x.x.x.x.x.x.x.x.x.x.x.x.x.x.x.x.x.x.x.a s s s s s s s s s z.z.s s s s s s s s s a x.x.x.x.x.x.x.x.x.x.x.x.x.x.x.x.x.x.x.x.x.",
"x.x.x.x.x.x.x.x.x.x.x.x.x.x.x.x.x.x.x.x.x.a s s s s s s s s s s s s s s s s s s s s a x.x.x.x.x.x.x.x.x.x.x.x.x.x.x.x.x.x.x.x.x.",
"x.x.x.x.x.x.x.x.x.x.x.x.x.x.x.x.x.x.x.x.x.a s s s s s s s s s s s s s s s s s s s s a x.x.x.x.x.x.x.x.x.x.x.x.x.x.x.x.x.x.x.x.x.",
"x.x.x.x.x.x.x.x.x.x.x.x.x.x.x.x.x.x.x.x.x.a s s s s s s s s s s s s s s s s s s s s a x.x.x.x.x.x.x.x.x.x.x.x.x.x.x.x.x.x.x.x.x.",
"x.x.x.x.x.x.x.x.x.x.x.x.x.x.x.x.x.x.x.x.x.a s s s s s s s s s s s s s s s s s s s s a x.x.x.x.x.x.x.x.x.x.x.x.x.x.x.x.x.x.x.x.x.",
"x.x.x.x.x.x.x.x.x.x.x.x.x.x.x.x.x.x.x.x.x.a s s s s s s s s s s s s s s s s s s s s a x.x.x.x.x.x.x.x.x.x.x.x.x.x.x.x.x.x.x.x.x.",
"x.x.x.x.x.x.x.x.x.x.x.x.x.x.x.x.x.x.x.x.x.a s s s s s s s s s s s s s s s s s s s s a x.x.x.x.x.x.x.x.x.x.x.x.x.x.x.x.x.x.x.x.x.",
"x.x.x.x.x.x.x.x.x.x.x.x.x.x.x.x.x.x.x.x.x.x.a s s s s s s s s s s s s s s s s s s a x.x.x.x.x.x.x.x.x.x.x.x.x.x.x.x.x.x.x.x.x.x.",
"x.x.x.x.x.x.x.x.x.x.x.x.x.x.x.x.x.x.x.x.x.x.x.a s s s s s s s s s s s s s s s s a x.x.x.x.x.x.x.x.x.x.x.x.x.x.x.x.x.x.x.x.x.x.x.",
"x.x.x.x.x.x.x.x.x.x.x.x.x.x.x.x.x.x.x.x.x.x.x.x.a s s s s s s s s s s s s s s a x.x.x.x.x.x.x.x.x.x.x.x.x.x.x.x.x.x.x.x.x.x.x.x.",
"x.x.x.x.x.x.x.x.x.x.x.x.x.x.x.x.x.x.x.x.x.x.x.x.x.a s s s s s s s s s s s s a x.x.x.x.x.x.x.x.x.x.x.x.x.x.x.x.x.x.x.x.x.x.x.x.x.",
"x.x.x.x.x.x.x.x.x.x.x.x.x.x.x.x.x.x.x.x.x.x.x.x.x.x.a s s s s s s s s s s a x.x.x.x.x.x.x.x.x.x.x.x.x.x.x.x.x.x.x.x.x.x.x.x.x.x.",
"x.x.x.x.x.x.x.x.x.x.x.x.x.x.x.x.x.x.x.x.x.x.x.x.x.x.x.a z.s s s s s s z.a x.x.x.x.x.x.x.x.x.x.x.x.x.x.x.x.x.x.x.x.x.x.x.x.x.x.x.",
"x.x.x.x.x.x.x.x.x.x.x.x.x.x.x.          x.x.x.x.x.x.x.x.a z.s s s s z.a x.x.x.x.x.x.x.x.x.x.x.x.x.x.x.x.x.x.x.x.x.x.x.x.x.x.x.x.",
"x.x.x.x.x.x.x.x.x.x.x.x.x.x.  l.l.l.l.l.  x.x.x.x.x.x.x.x.a z.s s z.a x.x.x.x.x.x.x.x.x.x.x.        x.x.x.x.x.x.x.x.x.x.x.x.x.x.",
"x.x.x.x.x.x.x.x.x.x.x.x.    ` ` ..@.@. .l.  x.x.x.x.x.x.x.x.a z.z.a x.x.x.x.x.x.x.x.x.x.x.  = = = &   x.x.x.x.x.x.x.x.x.x.x.x.x.",
"x.x.x.x.x.x.x.x.x.x.x.x.  0.2.' O.e.u.y.$.l.  x.x.x.x.x.x.x.x.a a x.x.x.x.x.x.x.x.x.x.x.  E N N N N o   x.x.x.x.x.x.x.x.x.x.x.x.",
"x.x.x.x.x.x.x.x.x.x.x.x.  0.3.` 8.b.b.b.1.l.  x.x.x.x.x.x.x.x.x.x.x.x.x.x.x.x.x.x.x.x.  E E Q Q J N N o   x.x.x.x.x.x.x.x.x.x.x.",
"x.x.x.x.x.x.x.x.x.x.x.x.  0.2.` 9.b.    ` l.. x.x.x.x.x.x.x.x.x.x.x.x.x.x.x.x.x.x.x.x.  E v.b.b.b.N N o   x.x.x.x.x.x.x.x.x.x.x.",
"x.x.x.x.x.x.x.x.x.x.x.x.  0.3.` 9.b.  b.`   p   x.x.x.x.x.x.x.x.x.x.x.x.x.x.x.x.x.x.x.  E =     b.N N o   x.x.x.x.x.x.x.x.x.x.x.",
"x.x.    x.x.x.x.x.x.x.x.  0.,.o.5.b.    l.. ~ p     x.x.x.x.x.x.x.x.x.x.x.x.x.x.x.x.  e   c.b.  b.N N o   x.x.x.x.x.x.x.x.x.x.x.",
"x.x.  0.  x.x.x.x.x.x.x.x.  0.0.+.' ` l.  u ! ! ! u   x.x.x.x.x.x.x.x.x.x.x.x.x.    u !   E     b.N j o   x.x.x.x.x.x.x.x.    x.",
"x.x.  0.l.  x.x.x.x.x.x.x.x.  0.2.` ` l.  w w w w w   x.x.x.x.x.x.x.x.x.x.x.x.  i ! ! ! @   E Z J o o   x.x.x.x.x.x.x.x.  o   x.",
"x.x.  0.l.        x.x.x.x.  0.0.<.` | l.            x.x.x.x.x.x.x.x.x.x.x.x.x.  r y y t +   E N N o   x.x.x.x.x.x.x.x.  H o   x.",
"x.x.  0.j.f.g.g.k.          0.4.` ` l.  x.x.x.x.x.x.x.x.x.x.x.x.x.x.x.x.x.x.x.x.            E E N o O   x.x.x.          H o   x.",
"x.x.  0.9.X.} } r.f.g.h.h.h.h.<.` ` l.l.    x.x.x.x.x.x.x.x.x.x.x.x.x.x.x.x.x.x.x.x.x.x.x.x.  E N E E           E W W R D o   x.",
"x.x.  0.t.` ` ` ` X.} _ ^ ^ ;.X.` ` ` l.l.l.  x.x.x.x.x.x.x.x.x.x.x.x.x.x.x.x.x.x.x.x.x.    K v N B A U T T T T S C C B k o   x.",
"x.x.x.  0.` 0.0.0.0.0.      q.2.` l.  l.o.l.  x.x.x.x.x.x.x.x.x.x.x.x.x.x.x.x.x.x.x.x.  W Y G N N N o % $ q C V N N N N o o   x.",
"x.x.x.  0.`             q.k.i.#.` l.  l.` l.l.  x.x.x.x.x.x.x.x.x.x.x.x.x.x.x.x.x.x.x.  L N ,   E N o         X X X o f o     x.",
"x.x.x.  0.6.    0.a.s.d.7.<.' l.l.l.  l.` { l.  x.x.x.x.x.x.x.x.x.x.x.x.x.x.x.x.x.x.  E F N X   E N B P E >           8 o   x.x.",
"x.x.x.    0.6.    0.( =.>.` ` :.l.l.  l.` :.l.  x.x.x.x.x.x.x.x.x.x.x.x.x.x.x.x.x.x.  E N N X   E N N N V I C o o     7 o   x.x.",
"x.x.x.x.  0.9.`     0.0.) *.*.&.l.  / ` [ l.0.  x.x.x.x.x.x.x.x.x.x.x.x.x.x.x.x.x.x.  E v N <   E E m m x o o       h o     x.x.",
"x.x.x.x.    0.p.<.      0.l.l.l.  / ` ] %.w.  x.x.x.x.x.x.x.x.x.x.x.x.x.x.x.x.x.x.x.x.  6 n N <   E E E o       # c g o   x.x.x.",
"x.x.x.x.x.    0.l.9.`           / :.w.w.0.0.  x.x.x.x.x.x.x.x.x.x.x.x.x.x.x.x.x.x.x.x.  * 2 9 M 5           - l M z o     x.x.x.",
"x.x.x.x.x.x.    0.0.:.:.:.:.:.:.-.0.0.0.    x.x.x.x.x.x.x.x.x.x.x.x.x.x.x.x.x.x.x.x.x.x.    1 3 b 4 ; ; : 0 b d o o     x.x.x.x.",
"x.x.x.x.x.x.x.      0.0.0.0.0.0.0.0.    x.x.x.x.x.x.x.x.x.x.x.x.x.x.x.x.x.x.x.x.x.x.x.x.x.x.  o o o o o o o o o       x.x.x.x.x.",
"x.x.x.x.x.x.x.x.x.                  x.x.x.x.x.x.x.x.x.x.x.x.x.x.x.x.x.x.x.x.x.x.x.x.x.x.x.x.x.                    x.x.x.x.x.x.x.",
"x.x.x.x.x.x.x.x.x.x.  ! ! ! ! !   x.x.x.x.x.x.x.x.x.x.x.x.x.x.x.x.x.x.x.x.x.x.x.x.x.x.x.x.x.x.x.  ! ~ ~ ~ ~ ~   x.x.x.x.x.x.x.x.",
"x.x.x.x.x.x.x.x.x.x.            x.x.x.x.x.x.x.x.x.x.x.x.x.x.x.x.x.x.x.x.x.x.x.x.x.x.x.x.x.x.x.x.x.            x.x.x.x.x.x.x.x.x.",
"x.x.x.x.x.x.x.x.x.x.x.x.x.x.x.x.x.x.x.x.x.x.x.x.x.x.x.x.x.x.x.x.x.x.x.x.x.x.x.x.x.x.x.x.x.x.x.x.x.x.x.x.x.x.x.x.x.x.x.x.x.x.x.x.",
"x.x.x.x.x.x.x.x.x.x.x.x.x.x.x.x.x.x.x.x.x.x.x.x.x.x.x.x.x.x.x.x.x.x.x.x.x.x.x.x.x.x.x.x.x.x.x.x.x.x.x.x.x.x.x.x.x.x.x.x.x.x.x.x.",
"x.x.x.x.x.x.x.x.x.x.x.x.x.x.x.x.x.x.x.x.x.x.x.x.x.x.x.x.x.x.x.x.x.x.x.x.x.x.x.x.x.x.x.x.x.x.x.x.x.x.x.x.x.x.x.x.x.x.x.x.x.x.x.x.",
"x.x.x.x.x.x.x.x.x.x.x.x.x.x.x.x.x.x.x.x.x.x.x.x.x.x.x.x.x.x.x.x.x.x.x.x.x.x.x.x.x.x.x.x.x.x.x.x.x.x.x.x.x.x.x.x.x.x.x.x.x.x.x.x.",
"x.x.x.x.x.x.x.x.x.x.x.x.x.x.x.x.x.x.x.x.x.x.x.x.x.x.x.x.x.x.x.x.x.x.x.x.x.x.x.x.x.x.x.x.x.x.x.x.x.x.x.x.x.x.x.x.x.x.x.x.x.x.x.x.",
"x.x.x.x.x.x.x.x.x.x.x.x.x.x.x.x.x.x.x.x.x.x.x.x.x.x.x.x.x.x.x.x.x.x.x.x.x.x.x.x.x.x.x.x.x.x.x.x.x.x.x.x.x.x.x.x.x.x.x.x.x.x.x.x.",
"x.x.x.x.x.x.x.x.x.x.x.x.x.x.x.x.x.x.x.x.x.x.x.x.x.x.x.x.x.x.x.x.x.x.x.x.x.x.x.x.x.x.x.x.x.x.x.x.x.x.x.x.x.x.x.x.x.x.x.x.x.x.x.x.",
"x.x.x.x.x.x.x.x.x.x.x.x.x.x.x.x.x.x.x.x.x.x.x.x.x.x.x.x.x.x.x.x.x.x.x.x.x.x.x.x.x.x.x.x.x.x.x.x.x.x.x.x.x.x.x.x.x.x.x.x.x.x.x.x.",
"x.x.x.x.x.x.x.x.x.x.x.x.x.x.x.x.x.x.x.x.x.x.x.x.x.x.x.x.x.x.x.x.x.x.x.x.x.x.x.x.x.x.x.x.x.x.x.x.x.x.x.x.x.x.x.x.x.x.x.x.x.x.x.x.",
"x.x.x.x.x.x.x.x.x.x.x.x.x.x.x.x.x.x.x.x.x.x.x.x.x.x.x.x.x.x.x.x.x.x.x.x.x.x.x.x.x.x.x.x.x.x.x.x.x.x.x.x.x.x.x.x.x.x.x.x.x.x.x.x.",
"x.x.x.x.x.x.x.x.x.x.x.x.x.x.x.x.x.x.x.x.x.x.x.x.x.x.x.x.x.x.x.x.x.x.x.x.x.x.x.x.x.x.x.x.x.x.x.x.x.x.x.x.x.x.x.x.x.x.x.x.x.x.x.x.",
"x.x.x.x.x.x.x.x.x.x.x.x.x.x.x.x.x.x.x.x.x.x.x.x.x.x.x.x.x.x.x.x.x.x.x.x.x.x.x.x.x.x.x.x.x.x.x.x.x.x.x.x.x.x.x.x.x.x.x.x.x.x.x.x.",
"x.x.x.x.x.x.x.x.x.x.x.x.x.x.x.x.x.x.x.x.x.x.x.x.x.x.x.x.x.x.x.x.x.x.x.x.x.x.x.x.x.x.x.x.x.x.x.x.x.x.x.x.x.x.x.x.x.x.x.x.x.x.x.x.",
"x.x.x.x.x.x.x.x.x.x.x.x.x.x.x.x.x.x.x.x.x.x.x.x.x.x.x.x.x.x.x.x.x.x.x.x.x.x.x.x.x.x.x.x.x.x.x.x.x.x.x.x.x.x.x.x.x.x.x.x.x.x.x.x.",
"x.x.x.x.x.x.x.x.x.x.x.x.x.x.x.x.x.x.x.x.x.x.x.x.x.x.x.x.x.x.x.x.x.x.x.x.x.x.x.x.x.x.x.x.x.x.x.x.x.x.x.x.x.x.x.x.x.x.x.x.x.x.x.x.",
"x.x.x.x.x.x.x.x.x.x.x.x.x.x.x.x.x.x.x.x.x.x.x.x.x.x.x.x.x.x.x.x.x.x.x.x.x.x.x.x.x.x.x.x.x.x.x.x.x.x.x.x.x.x.x.x.x.x.x.x.x.x.x.x."
};
