/* XPM */
static char *_c48ff7ea7544f42d89608674ace994aOoi3ui3YDWrBQAGm[] = {
/* columns rows colors chars-per-pixel */
"64 64 45 1 ",
"  c #090B07",
". c #1B2313",
"X c #2A381C",
"o c #182329",
"O c #263831",
"+ c #33491E",
"@ c #344C26",
"# c #354228",
"$ c #32423E",
"% c #42552E",
"& c #465932",
"* c #51742E",
"= c #506A35",
"- c #51683A",
"; c #58713F",
": c #5A793C",
"> c #4F5F40",
", c #566844",
"< c #576B4D",
"1 c #5A7341",
"2 c #61784A",
"3 c #4C6F7D",
"4 c #B46700",
"5 c #B46800",
"6 c #C37000",
"7 c #5F803F",
"8 c #678647",
"9 c #658248",
"0 c #6A894B",
"q c #6B884F",
"w c #6C8B4D",
"e c #6E8D4F",
"r c #728E56",
"t c #729154",
"y c #749256",
"u c #759258",
"i c #79945D",
"p c #E18100",
"a c #F08A00",
"s c #81986A",
"d c #88A16E",
"f c #91A87A",
"g c #507381",
"h c #7EB9D9",
"j c white",
/* pixels */
"hhhhhhhhhhhhhhhhhhhhhhhhhhhhhhhhhhhhhhhhhhhhhhhhhhhhhhhhhhhhhhhh",
"hhhhhhhhhhhhhhhhhhhhhhhhhhhhhhhhhhhhhhhhhhhhhhhhhhhhhhhhhhhhhhhh",
"hhhhhhhhhhhhhhhhhhhhhhhhhhhhhhhhhhhhhhhhhhhhhhhhhhhhhhhhhhhhhhhh",
"hhhhhhhhhhhhhhhhhhhhhhhhhhhhhhhhhhhhhhhhhhhhhhhhhhhhhhhhhhhhhhhh",
"hhhhhhhhhhhhhhhhhhhhhhhhhhhhhhhhhhhhhhhhhhhhhhhhhhhhhhhhhhhhhhhh",
"hhhhhhhhhhhhhhhhhhhhhhhhhhhhhhhhhhhhhhhhhhhhhhhhhhhhhhhhhhhhhhhh",
"hhhhhhhhhhhhhhhhhhhhhhhhhhhhhhhhhhhhhhhhhhhhhhhhhhhhhhhhhhhhhhhh",
"hhhhhhhhhhhhhhhhhhhhhhhhhhhhhhhhhhhhhhhhhhhhhhhhhhhhhhhhhhhhhhhh",
"hhhhhhhhhhhhhhhhhhhhhhhhhhhhhhhhhhhhhhhhhhhhhhhhhhhhhhhhhhhhhhhh",
"hhhhhhhhhhhhhhhhhhhhhhhhhhhhhhhhhhhhhhhhhhhhhhhhhhhhhhhhhhhhhhhh",
"hhhhhhhhhhhhhhhhhhhhhhhhhhhhhhhhhhhhhhhhhhhhhhhhhhhhhhhhhhhhhhhh",
"hhhhhhhhhhhhhhhhhhhhhhhhhhhhhhhhhhhhhhhhhhhhhhhhhhhhhhhhhhhhhhhh",
"hhhhhhhhhhhhhhhh..........hhhhhhhhhhhhhhhhhhhhhhhhhhhhhhhhhhhhhh",
"hhhhhhhhhhhhhhhh..........hhhhhhhhhhhhhhhhhhhhhhhhhhhhhhhhhhhhhh",
"hhhhhhhhhhhhhh..wwwwwwwww<..hhhhhhhhhhhhhhhhhhhhhhhhhhhhhhhhhhhh",
"hhhhhhhhhhhhhh..wwwwwwwwww..hhhhhhhhhhhhhhhhhhhhhhhhhhhhhhhhhhhh",
"hhhhhhhhhhhh..iiwwwwwwwwwwww..hhhhhhhhhhhhhhhhhhhhhhhhhhhhhhhhhh",
"hhhhhhhhhhhh..iiwwwwwwwwwwww..hhhhhhhhhhhhhhhhhhhhhhhhhhhhhhhhhh",
"hhhhhhhhhh..iirtwwwwwwwwwwwwww..hhhhhhhhhhhhhhhhhhhhhhhhhhhhhhhh",
"hhhhhhhhhh..iitudffffduwwwwwww..hhhhhhhhhhhhhhhhhhhhhhhhhhhhhhhh",
"hhhhhhhhhh..**wwjjjjjjdwwwweww..hhhhhhhhhhhhhhhhhhhhhhhhhhhhhhhh",
"hhhhhhhhhh..**wwjjjjjjfwwwwwww..hhhhhhhhhhhhhhhhhhhhhhhhhhhhhhhh",
"hhhhhhhhhh..**ww....jjfwwwwwww..hhhhhhhhhhhhhhhhhhhhhhhhhhhhhhhh",
"hhhhhhhhhh..**ww....jjfwwwwwww..hhhhhhhhhhhhhhhhhhhhhhhhhhhhhhhh",
"hhhhhhhh..55..**jj..jjfwwwwwww..hhhhhhhhhhhhhhhhhhhhhhhhhhhhhhhh",
"hhhhhhhh..55..**jj..jjfwwww0ww..hhhhhhhhhhhhhhhhhhhhhhhhhhhhhhhh",
"hhhh....5555..**....jjfwwww**...hhhhhhhhhhhhhhhh....hhhhhhhhhhhh",
"hhhh....5555..**....jjdww08**...hhhhhhhhhhhhhhhh....hhhhhhhhhhhh",
"hh..5556paap55..**-2sduw****..hhhhhhhhhhhhhhhh..**..hhhhhhhhhhhh",
"hh..55aaaaaa55..**wwwww0****..hhhhhhhhhhhhhhhh..**..hhhhhhhhhhhh",
"hh..55aaaaaa55..**wwwww8**..hhhhhhhhhhhhhhhh..ii**..hhhhhhhhhhhh",
"hh..5544444455..**0wwww8**..hhhhhhhhhhhhhhhh..ii**..hhhhhhhhhhhh",
"hhhh............**8wwww8**..ohhhhhhhh.........ii**..hhhhhhhhhhhh",
"hhhh............****www0**.. ohhhhhhh.........ii**..hhhhhhhhhhhh",
"hhhhhhhhhhhhhhh3OX**wwwwiiii.........iiiiiiiiiii**..hhhhhhhhhhhh",
"hhhhhhhhhhhhhhhg$#**wwwtiiii.........iiiiiiiiiii**..hhhhhhhhhhhh",
"hhhhhhhhhhhh....ii**wwwetyyriiiiiiiiiiryyyyyytew**..hhhhhhhhhhhh",
"hhhhhhhhhhhh...iiitwwwwwwwwtiiiiiiiiiitwwwwwwwww**..hhhhhhhhhhhh",
"hhhhhhhhhh..iiiiiiewwwwwwwwetyyyyyyyytewwwwwwwww**..hhhhhhhhhhhh",
"hhhhhhhhhh..iiiiiiwwwwwwwww9;--;9wwwwwwwwwwwwww0**..hhhhhhhhhhhh",
"hhhhhhhhhh..iiytewwwwwwwwww;....;wwwwwwwwwwwwww***..hhhhhhhhhhhh",
"hhhhhhhhhh..iiwww9;;**wwwww1....&----------;9w***@..hhhhhhhhhhhh",
"hhhhhhhh..iiiiwww;..**wwwwwqiii.............;w**..hhhhhhhhhhhhhh",
"hhhhhhhh..iiiiwww-..**wwwwwtiii.............-w**..hhhhhhhhhhhhhh",
"hhhhhhhh..**ewwww-..**wwwwwetyyiiiiiiiiii>..-w**..hhhhhhhhhhhhhh",
"hhhhhhhh..**wwwww-..**0wwwwwwwwiiiiiiiiii,..;0**..hhhhhhhhhhhhhh",
"hhhhhhhh..**wwwww-..**8wwwwwwwwetyy****=..&;9***..hhhhhhhhhhhhhh",
"hhhhhhhh..**wwwww;..****0wwwwww0888****+..;ww***..hhhhhhhhhhhhhh",
"hhhhhhhh..**wwwww9;%..**8wwwwww*****....%;9w**..hhhhhhhhhhhhhhhh",
"hhhhhhhh..****0wwww;..**:888888*****....;ww0**..hhhhhhhhhhhhhhhh",
"hhhhhhhhhh..**8wwww9;%..********....%--;9ww8**..hhhhhhhhhhhhhhhh",
"hhhhhhhhhh..**780wwww;..********....;wwww08:**..hhhhhhhhhhhhhhhh",
"hhhhhhhhhh..******www9;%........%--;9wwww8**..hhhhhhhhhhhhhhhhhh",
"hhhhhhhhhh..******880ww;........;wwww0888:**..hhhhhhhhhhhhhhhhhh",
"hhhhhhhhhhhh....*****ww9;------;9wwww*****..hhhhhhhhhhhhhhhhhhhh",
"hhhhhhhhhhhh....*****8888888888888888*****..hhhhhhhhhhhhhhhhhhhh",
"hhhhhhhhhhhhhhhh...*******************....hhhhhhhhhhhhhhhhhhhhhh",
"hhhhhhhhhhhhhhhh....******************....hhhhhhhhhhhhhhhhhhhhhh",
"hhhhhhhhhhhhhhhhhhhh..................hhhhhhhhhhhhhhhhhhhhhhhhhh",
"hhhhhhhhhhhhhhhhhhhh..................hhhhhhhhhhhhhhhhhhhhhhhhhh",
"hhhhhhhhhhhhhhhhhhhhhh..aaaaaaaaaaaa..hhhhhhhhhhhhhhhhhhhhhhhhhh",
"hhhhhhhhhhhhhhhhhhhhhh..aaaaaaaaaaaa.hhhhhhhhhhhhhhhhhhhhhhhhhhh",
"hhhhhhhhhhhhhhhhhhhhhh..............hhhhhhhhhhhhhhhhhhhhhhhhhhhh",
"hhhhhhhhhhhhhhhhhhhhhh..............hhhhhhhhhhhhhhhhhhhhhhhhhhhh"
};
