/* XPM */
static char *_644d4bcdc9345f19925a621a07eeb4fwKr0YjLTUa627Dzk[] = {
/* columns rows colors chars-per-pixel */
"64 64 20 1 ",
"  c black",
". c #050703",
"X c #060803",
"o c #0B1203",
"O c #1A2B09",
"+ c #1E2F0E",
"@ c #182329",
"# c #3B5621",
"$ c #41641F",
"% c #486A26",
"& c #4B6F27",
"* c #4C6E2B",
"= c #4E712A",
"- c #4F722C",
"; c #50732D",
": c #51752E",
"> c #567A32",
", c #587C34",
"< c #608F33",
"1 c #7EB9D9",
/* pixels */
"1111111111111111111111111111111111111111111111111111111111111111",
"1111111111111111111111111111111111111111111111111111111111111111",
"1111111111111111111111111111111111111111111111111111111111111111",
"1111111111111111111111111111111111111111111111111111111111111111",
"1111111111111111111111111111111111111111111111111111111111111111",
"1111111111111111111111111111111111111111111111111111111111111111",
"1111111111111111111111111111111111111111111111111111111111111111",
"1111111111111111111111111111111111111111111111111111111111111111",
"1111111111111111111111111111111111111111111111111111111111111111",
"1111111111111111111111111111111111111111111111111111111111111111",
"1111111111111111111111111111111111111111111111111111111111111111",
"1111111111111111111111111111111111111111111111111111111111111111",
"1111111111111111            1111111111111111          1111111111",
"1111111111111111            .@11111111111111          1111111111",
"1111111111111     ##########  111111111111    ######      111111",
"1111111111111     ##########    1111111111    ######      111111",
"1111111111    #####&=-----####   1111111    ##-<<<:-####    1111",
"1111111111    #####-------####    111111    ##:<<<-:####    1111",
"11111111  ####<<=------------###  1111  ####*:;----;:::-##    11",
"11111111  ###<<<-------------###  1111  ####-----------:##    11",
"11111111  ###<<----------------##  11@  ##:------------;:-##    ",
"11111111  ###------------------##    X  ##:--------------:##    ",
"11111111  ###------------------####  ##<<:;--------------;<<##  ",
"11111111  ###------------------####  ##<<----------------<<<##  ",
"11111111  ###------------------####  ##,-----------------<<:##  ",
"11111111  ###--------------------######>-------------------:##  ",
"11111111  ###--------------------######--------------------:##  ",
"11111111  ###-------<<-------------------------------------:##  ",
"11111111  ###-------<<-------------------------------------:##  ",
"11111111  ###---------<<---------------------------------;:-##  ",
"11111111   +##--------<<---------------------------------:##  11",
"11111111    ##--------<<---------------------------------:##  11",
"111111111   ##-------------------------------------------:##  11",
"1111111111  ##=------------------------------------------:##  11",
"1111111111  ##&------------------------------------------:##  11",
"1111111111  ####---------------------------------------;:-##  11",
"1111111111  ####-------------------<<<<----------------:##  1111",
"1111111111    ##=------------------<<<<----------------:##  1111",
"1111111111    ####-------------------<<----------------:##  1111",
"111111111111  ####-------------------<<--------------;:-##  1111",
"111111111111    ##-----------------<<----------------:##    1111",
"111111111111    ##=----------------<<----------------:##    1111",
"11111111111111  ####----------------------------;----:##  111111",
"11111111111111  ####&&=----------------------------;:-##  111111",
"11111111111111    ######---------------------------:##    111111",
"11111111111111    ######&&=----------------------;:-##    111111",
"1111111111111111      ####&----------------------:##   111111111",
"1111111111111111      ####$&&&&&=--------------;:-##   111111111",
"11111111111111111111     O#######--------------:##   11111111111",
"11111111111111111111     o#######&&&&&&&&&&&&&&%##   11111111111",
"111111111111111111111111         ###############    111111111111",
"111111111111111111111111         ###############    111111111111",
"11111111111111111111111111111111                  11111111111111",
"11111111111111111111111111111111                  11111111111111",
"1111111111111111111111111111111111111111111111111111111111111111",
"1111111111111111111111111111111111111111111111111111111111111111",
"1111111111111111111111111111111111111111111111111111111111111111",
"1111111111111111111111111111111111111111111111111111111111111111",
"1111111111111111111111111111111111111111111111111111111111111111",
"1111111111111111111111111111111111111111111111111111111111111111",
"1111111111111111111111111111111111111111111111111111111111111111",
"1111111111111111111111111111111111111111111111111111111111111111",
"1111111111111111111111111111111111111111111111111111111111111111",
"1111111111111111111111111111111111111111111111111111111111111111"
};
