/* XPM */
static char *e6bfd41b6d9d470aeae1a66899f4247du3676U0sjf7Rzm83[] = {
/* columns rows colors chars-per-pixel */
"32 32 6 1 ",
"  c black",
". c #386010",
"X c #4B6B2B",
"o c #4F722C",
"O c #5B8037",
"+ c #7EB9D9",
/* pixels */
"++++++++++++++++++++++++++++++++",
"++++++++++++++++++++++++++++++++",
"++++++++++++++++++++++++++++++++",
"++++++++++++++++++++++++++++++++",
"++++++++++++++++++++++++++++++++",
"++++++++++++++++++++++++++++++++",
"++++++++       +++++++     +++++",
"++++++   .oooo  +++++  OOO   +++",
"+++++  .ooooooo  +++  OoooOO  ++",
"++++ .oooooooooo ++ OoooooooO  +",
"++++ .ooooXoooooo   OoooooXooO  ",
"++++ .oooOXXooooo  OooooOXooooO ",
"++++ .oooooXooXoo  OoooOXoooooO ",
"++++ .ooooooooooooooooooooooooO ",
"++++ .oooooooooXooooXoooooOoooO ",
"++++  oooooXoooooooOooooXooooO +",
"+++++ ooooooXooooooOooXOoooooO +",
"+++++ .oooooXOooooooooXooooooO +",
"+++++  ooooooOoooXooooooOoooO ++",
"++++++ .oooooooooXOooooOooooO ++",
"++++++  oooooooooXoooooOoooO  ++",
"+++++++ .ooooooooXOooooooooO +++",
"+++++++  ..oooooooooooooooO  +++",
"++++++++   ..oooooXooooooO  ++++",
"++++++++++   ...ooooooooO  +++++",
"++++++++++++    ........  ++++++",
"++++++++++++++++         +++++++",
"++++++++++++++++++++++++++++++++",
"++++++++++++++++++++++++++++++++",
"++++++++++++++++++++++++++++++++",
"++++++++++++++++++++++++++++++++",
"++++++++++++++++++++++++++++++++"
};
